<?xml version="1.0" encoding="UTF-8"?>
<svg width="512pt" height="512pt" version="1.1" viewBox="0 0 512 512" xmlns="http://www.w3.org/2000/svg">
 <path d="m448.3 392.12h58.371c1.75 0 1.8984 3.2852-0.085937 3.2852h-57.047c2.0664 3.3672 7.1719 7.1406 16.582 8.6992 5.668 0.94141 10.262 3.125 12.465 5.418 2.3125 2.4062 2.6562 5.6484-0.1875 7.8203-1.9023 1.4531-5.6523 2.4375-11.707 2.4219l-13.957-0.039062c-131.61-0.35547-263.45-0.71094-378.43-12.008-11.5-1.1289-27.211-5.6133-37.188-11.75-2.0117-1.2344-1.2734-0.91406-3.6094-0.91406h-29.934c-1.7539 0-2.0742-2.9375-0.039062-2.9375h29.133c-6.8164-6.9844-9.8945-15.809-10.441-25.469-0.36719-6.4609 1.0898-5.9922 5.9922-7.0312 1.5547-0.32812 3.2656-0.76172 4.8516-0.67188v-29.461c0-1.3008 0.29688-2.3867 1.6484-2.9023l95.082-36.285 0.085937-16.613c-0.074218-1.0469 0.50781-2.0703 1.5195-2.5195l48.215-21.277c0.48047-0.21094 0.99219-0.26172 1.4727-0.17969l19.234 2.7461v10.918l11.027-4.2109c0.79688-0.30469 1.8672-0.058593 2.7266 0.085938l39.145 6.4648v-19.465l42.762-19.043c1.2852-0.57422 2.7969 0.003907 3.3711 1.2891s-0.003907 2.7969-1.2891 3.3711l-39.723 17.688v30.836c8-1.6211 16.098-3.2305 24.266-4.8125l16.363-39.078 42.297 1.0859c0.59766 0.015624 1.0742 0.011718 1.4609 0.003906 0.71875-0.007813 1.2773-0.015625 1.7656 0.074218 0.13281 0 0.26953 0.007813 0.40234 0.027344l11.5 1.7109 13.656-44.812c0.97266-3.2109 5.8516-1.7305 4.8789 1.4805l-13.438 44.09 18.02 2.6797v-64.062c0-3.3672 5.1211-3.3672 5.1211 0v64.824l16.523 2.457-12.465-49.355c-0.81641-3.2617 4.1445-4.5039 4.9609-1.2383l12.984 51.41 47.094 7.0078c7.6055-0.17969 15.188-0.20703 22.711-0.058593 23.828 0.47656 45.195 3.8516 25.965 32.465-2.875 4.2773-6.1875 9.0234-9.6719 14.02-16.43 23.543-36.816 52.758-42.59 78.609-1.2383 5.5547-1.9766 9.8711-1.8555 13.195zm-319.89-307.89c-0.70703 0-1.2812-0.57422-1.2812-1.2812s0.57422-1.2812 1.2812-1.2812h55.129c0.70703 0 1.2812 0.57422 1.2812 1.2812s-0.57422 1.2812-1.2812 1.2812zm35.547 20.07c-0.70703 0-1.2812-0.57422-1.2812-1.2812 0-0.70703 0.57422-1.2812 1.2812-1.2812h71.422c0.70703 0 1.2812 0.57422 1.2812 1.2812 0 0.70703-0.57422 1.2812-1.2812 1.2812zm130.36-53.523c-0.70703 0-1.2812-0.57422-1.2812-1.2812s0.57422-1.2812 1.2812-1.2812h63.422c0.70703 0 1.2812 0.57422 1.2812 1.2812s-0.57422 1.2812-1.2812 1.2812zm35.066-19.625c-0.70703 0-1.2812-0.57422-1.2812-1.2812s0.57422-1.2812 1.2812-1.2812h103.66c0.70703 0 1.2812 0.57422 1.2812 1.2812s-0.57422 1.2812-1.2812 1.2812zm-277.25-2.3125c5.5 0 10.48 2.2305 14.082 5.832 3.6055 3.6055 5.832 8.582 5.832 14.082s-2.2305 10.48-5.832 14.082c-3.6055 3.6055-8.582 5.832-14.082 5.832s-10.48-2.2305-14.082-5.832c-3.6055-3.6055-5.832-8.582-5.832-14.082s2.2305-10.48 5.832-14.082c3.6055-3.6055 8.582-5.832 14.082-5.832zm12.273 7.6445c-3.1406-3.1406-7.4805-5.082-12.273-5.082s-9.1328 1.9414-12.273 5.082-5.082 7.4805-5.082 12.273 1.9414 9.1328 5.082 12.273 7.4805 5.082 12.273 5.082 9.1328-1.9414 12.273-5.082 5.082-7.4805 5.082-12.273-1.9414-9.1328-5.082-12.273zm371.89 424.1c-1.5664 0.59766-2.4766-1.7812-0.91016-2.3789 11.195-4.3047 13.891 4.7227 24.773 0.83984 1.5859-0.56641 2.4453 1.8438 0.85938 2.4102-11.852 4.2305-14.734-4.7109-24.723-0.86719zm-96.711-0.84766c-1.5664 0.59766-2.4766-1.7812-0.91016-2.3789 11.195-4.3047 13.891 4.7227 24.773 0.83984 1.5859-0.56641 2.4453 1.8438 0.85938 2.4102-11.852 4.2305-14.734-4.7109-24.723-0.86719zm-68.836 21.625c-1.5664 0.59766-2.4766-1.7812-0.91016-2.3789 11.195-4.3047 13.891 4.7227 24.773 0.83984 1.5859-0.56641 2.4453 1.8438 0.85937 2.4102-11.852 4.2305-14.734-4.7109-24.723-0.86719zm-68.836-36.043c-1.5664 0.59766-2.4766-1.7812-0.91016-2.3789 11.195-4.3047 13.891 4.7227 24.773 0.83984 1.5859-0.56641 2.4453 1.8438 0.85938 2.4102-11.852 4.2305-14.734-4.7109-24.723-0.86719zm-68.836 21.625c-1.5664 0.59766-2.4766-1.7812-0.91016-2.3789 11.195-4.3047 13.891 4.7227 24.773 0.83984 1.5859-0.56641 2.4453 1.8438 0.85938 2.4102-11.852 4.2305-14.734-4.7109-24.723-0.86719zm-68.836-28.832c-1.5664 0.59766-2.4766-1.7812-0.91016-2.3789 11.195-4.3047 13.891 4.7227 24.773 0.83984 1.5859-0.56641 2.4453 1.8438 0.85938 2.4102-11.852 4.2305-14.734-4.7109-24.723-0.86719zm64.664-213.5c-0.69922-0.10938-1.1758-0.76172-1.0703-1.4609 0.10938-0.69922 0.76172-1.1758 1.4609-1.0703l29.582 4.5625c1.6641 0.25781 1.2734 2.7852-0.39062 2.5312zm-8.1172-9.1445c-0.69922-0.10156-1.1836-0.75-1.0781-1.4492 0.10156-0.69922 0.75-1.1836 1.4492-1.0781l59.238 8.8359c1.6641 0.24219 1.293 2.7734-0.37109 2.5312l-59.238-8.8359zm-12.629 46.352v-57.805c0-3.3672 5.1211-3.3672 5.1211 0v55.684l90.023-37.301c3.1055-1.2773 5.043 3.4453 1.9414 4.7188l-102.52 42.477v16.664c0 3.3672-5.1211 3.3672-5.1211 0v-75.945c0-3.3672 5.1211-3.3672 5.1211 0v53.758l5.4336-2.25zm131.43 6.8242-0.14062 12.824 7.9492 1.1641c1.9375-0.39844 3.8828-0.79688 5.832-1.1953v-10.543l-13.641-2.2539zm-5.2344 12.078 0.14062-12.918-18.867-3.1172-0.14453 13.266 18.871 2.7656zm-50.977-25.52-0.10156 14.688 11.934-4.5547v-8.4414zm-0.14062 20.176-0.085937 12.066c9.082-3.0469 18.156-6.0898 27.227-9.1289l0.14844-13.352c-9.1016 3.4727-18.184 6.9414-27.289 10.414zm64.875 12.32c-7.6445 2.0234-17.188 1.0469-20.676 7.8984-3.1211 6.1367-6.5156 12.242-9.7656 18.32-2.0703 3.875-2.0664 4.1641-2.0195 7.2383 0.015625 0.95703 0.03125 2.0586 0.03125 2.293v7.2188c0 3.4805-0.28125 6.2617-2.0625 8.6836-1.7344 2.3555-4.6914 4.0039-9.9297 5.082l-0.039062 0.011719-159.14 29.926c-6.8438 1.2891-10.012-0.44531-11.516-7.6211-0.34766-1.6641-0.57812-2.7617-1.707-2.543-0.65234 0.125-1.3477 0.27344-2.0117 0.41406-1.3945 0.28906-2.0469 0.046875-1.9492 1.75 0.48828 8.6641 3.2188 16.523 9.4727 22.668 6.5508 2.0352 20.871 3.2617 37.293 4.3438 34.496 2.2734 84.547 2.9922 137.19 2.5859 93.629-0.71875 195.36-5.0078 232.42-10.461 0.34375-2.3203 0.84766-4.8672 1.4766-7.6836 5.9922-26.84 26.699-56.516 43.391-80.43 3.1992-4.582 6.2461-8.9492 9.0781-13.145 1.875-3.625-6.7773-4.8125-8.7383-5.168-6.9414-1.2578-16.844-1.6758-28.41-1.5078-44.43 0.64844-112.71 10.008-133.28 14.238-1.3789 0.28125-2.7266-0.60938-3.0117-1.9883-0.28125-1.3789 0.60938-2.7266 1.9883-3.0117 20.723-4.2617 89.484-13.684 134.24-14.34 11.863-0.17187 22.09 0.26953 29.371 1.5859 5.2695 0.95312 9.1719 2.4492 11.336 4.5977 11.438-20.531-10.066-19.434-24.793-19.727-40.613-0.8125-81.727 3.4648-121.87 9.3984-35.656 5.2734-71.07 12.105-106.37 19.363zm-15.328-2.0391-17.359-2.5469-0.26953 24.695c2.5781-4.8281 5.2422-9.6523 7.7227-14.531 2.7617-5.4297 3.8164-6.3477 9.9102-7.6211zm-97.809-10.477-0.070312 13.168 43.254-16.508 0.10938-15.766zm-96.789 55.555v5.3516c9.0352-3.0312 18.082-6.0625 27.129-9.0977l0.019532-6.6133-27.148 10.363zm32.254-12.309-0.019531 6.8516c9.0391-3.0312 18.086-6.0664 27.133-9.1055l0.046874-8.1094-27.156 10.363zm32.266-12.312-0.046875 8.3477 20.746-6.9609 6.3086-2.1172 0.050781-9.5938-27.059 10.328zm32.172-12.277-0.050781 9.8281c14.41-4.8359 28.816-9.6719 43.211-14.5l0.082032-11.832zm-96.691 47.637v5.4336l27.09-7.8281 0.019531-6.6953c-9.043 3.0352-18.082 6.0664-27.113 9.0938zm32.219-10.805-0.023438 6.9336 27.094-7.832 0.046876-8.2031c-9.043 3.0352-18.082 6.0664-27.117 9.0977zm32.23-10.812-0.046875 8.4414 27.051-7.8164 0.050781-9.7031-4.6602 1.5625zm32.164-10.797-0.050781 9.9414 43.172-12.477 0.082031-11.961c-14.395 4.8281-28.797 9.6641-43.203 14.496zm48.316-16.211-0.085938 12.199 27.141-7.8438 0.14844-13.48c-9.0625 3.0391-18.129 6.0781-27.203 9.1211zm-144.93 59.371v5.4961l27.055-6.5703 0.019531-6.75zm32.18-9.3008-0.023438 6.9844 27.059-6.5742 0.046875-8.2383zm32.191-9.3047-0.046875 8.4766 27.051-6.5703 0.050782-9.7227-27.055 7.8203zm32.16-9.293-0.050781 9.957 43.133-10.477 0.082031-11.953zm48.273-13.949-0.085938 12.191 27.055-6.5742 0.14844-13.453zm164.1-67.172v21.082c2.2148-0.33984 4.4336-0.67578 6.6484-1 24.359-3.6016 48.852-6.5312 73.426-8.1641l-80.074-11.914zm-58.457 31.234c1.0273-0.19531 2.0547-0.39062 3.082-0.58594 16.594-3.1406 33.422-6.1211 50.254-8.7695 0-7.418-0.14453-14.969 0.011719-22.367-13.07-0.015625-26.531-0.67188-39.641-1.0078l-13.707 32.734zm-4.8047-105.29c-1.6719-0.15234-1.4414-2.6914 0.23047-2.5391l37.547 3.4141c1.6719 0.15234 1.4414 2.6914-0.23047 2.5391zm-6.9102-9.2617c-1.6719-0.15234-1.4414-2.6914 0.23047-2.5391l64.273 5.9102c1.6719 0.15234 1.4414 2.6914-0.23047 2.5391zm-239.52 203.28c0.21094 0.77734 0.39453 1.6367 0.58594 2.5586 1.0312 4.9414 2.2578 4.2656 6.1484 3.5352l158.57-29.816c3.8242-0.78906 5.8281-1.7812 6.793-3.0938 0.91797-1.2461 1.0625-3.1641 1.0625-5.6641v-7.2188c0-1.5312-0.003906-1.9102-0.011718-2.2344v-0.12891l-173.14 42.059zm226.07-157.61v-53.906c0-3.3672 5.1211-3.3672 5.1211 0v51.641l112.45-49.695c3.0781-1.3555 5.1367 3.3242 2.0586 4.6797l-124.25 54.91v16.734c0 1.4141-1.1445 2.5586-2.5586 2.5586-1.4141 0-2.5586-1.1445-2.5586-2.5586v-75.945c0-3.3672 5.1211-3.3672 5.1211 0v53.625l4.6172-2.0391zm24.352 9.1445c-1.293 0.5625-2.7969-0.027343-3.3594-1.3203s0.027344-2.7969 1.3203-3.3594l82.473-35.945c3.0781-1.3398 5.1172 3.3398 2.0391 4.6797zm114.32 82.898c-0.70312 0.085938-1.3398-0.41406-1.4258-1.1133-0.085938-0.70312 0.41406-1.3398 1.1133-1.4258l6.8281-0.85156c0.70312-0.085937 1.3398 0.41406 1.4258 1.1133 0.085938 0.70312-0.41406 1.3398-1.1133 1.4258zm-18.312 2.2266c-0.70312 0.085938-1.3398-0.41406-1.4258-1.1133-0.085938-0.70312 0.41406-1.3398 1.1133-1.4258l6.8281-0.85156c0.70312-0.085938 1.3398 0.41406 1.4258 1.1133 0.085938 0.70312-0.41406 1.3398-1.1133 1.4258zm-18.312 2.2266c-0.70312 0.085937-1.3398-0.41406-1.4258-1.1133-0.085938-0.70312 0.41406-1.3398 1.1133-1.4258l6.8281-0.85156c0.70312-0.085938 1.3398 0.41406 1.4258 1.1133 0.085938 0.70312-0.41406 1.3398-1.1133 1.4258zm77.844 86.098c-37.746 5.418-138.94 9.668-232.09 10.383-52.559 0.40625-102.57-0.32031-137.21-2.5938-11.211-0.73438-20.812-1.6367-28.371-2.7109-4.8594-0.69141-6.4336-1.3203-0.77734 1.7305 8.9102 4.8047 19.91 6.7188 29.879 7.6953 114.78 11.277 246.47 11.633 377.93 11.988l13.957 0.039062c13.789 0.039063 8.0469-3.9531-1.3906-5.5156-11.25-1.8672-17.355-4.5391-20.23-9.5781-1.7344-3.0391-2.1484-6.7227-1.6953-11.434z"/>
</svg>
